<?xml version="1.0" encoding="UTF-8" standalone="no"?>
<!-- Created with Inkscape (http://www.inkscape.org/) -->

<svg
   xmlns:dc="http://purl.org/dc/elements/1.1/"
   xmlns:cc="http://creativecommons.org/ns#"
   xmlns:rdf="http://www.w3.org/1999/02/22-rdf-syntax-ns#"
   xmlns:svg="http://www.w3.org/2000/svg"
   xmlns="http://www.w3.org/2000/svg"
   xmlns:sodipodi="http://sodipodi.sourceforge.net/DTD/sodipodi-0.dtd"
   xmlns:inkscape="http://www.inkscape.org/namespaces/inkscape"
   width="1900"
   height="500"
   viewBox="0 0 502.70836 132.29167"
   version="1.1"
   id="svg8"
   sodipodi:docname="args.svg"
   inkscape:version="0.92.4 5da689c313, 2019-01-14">
  <defs
     id="defs2">
    <filter
       inkscape:collect="always"
       style="color-interpolation-filters:sRGB"
       id="filter4728"
       x="-0.011130376"
       width="1.0222608"
       y="-0.12202577"
       height="1.2440515">
      <feGaussianBlur
         inkscape:collect="always"
         stdDeviation="0.89726207"
         id="feGaussianBlur4730" />
    </filter>
    <filter
       inkscape:collect="always"
       style="color-interpolation-filters:sRGB"
       id="filter5500"
       x="-0.047634479"
       width="1.095269"
       y="-0.040813878"
       height="1.0816278">
      <feGaussianBlur
         inkscape:collect="always"
         stdDeviation="0.3081152"
         id="feGaussianBlur5502" />
    </filter>
    <filter
       inkscape:collect="always"
       style="color-interpolation-filters:sRGB"
       id="filter5504"
       x="-0.046799656"
       width="1.0935993"
       y="-0.040420745"
       height="1.0808415">
      <feGaussianBlur
         inkscape:collect="always"
         stdDeviation="0.3081152"
         id="feGaussianBlur5506" />
    </filter>
    <filter
       inkscape:collect="always"
       style="color-interpolation-filters:sRGB"
       id="filter5508"
       x="-0.048660312"
       width="1.0973206"
       y="-0.039710365"
       height="1.0794207">
      <feGaussianBlur
         inkscape:collect="always"
         stdDeviation="0.3081152"
         id="feGaussianBlur5510" />
    </filter>
    <filter
       inkscape:collect="always"
       style="color-interpolation-filters:sRGB"
       id="filter5512"
       x="-0.042966165"
       width="1.0859323"
       y="-0.040813878"
       height="1.0816278">
      <feGaussianBlur
         inkscape:collect="always"
         stdDeviation="0.3081152"
         id="feGaussianBlur5514" />
    </filter>
    <filter
       inkscape:collect="always"
       style="color-interpolation-filters:sRGB"
       id="filter5516"
       x="-0.080552995"
       width="1.161106"
       y="-0.18165028"
       height="1.3633006">
      <feGaussianBlur
         inkscape:collect="always"
         stdDeviation="0.3081152"
         id="feGaussianBlur5518" />
    </filter>
    <filter
       inkscape:collect="always"
       style="color-interpolation-filters:sRGB"
       id="filter5520"
       x="-0.046799645"
       width="1.0935993"
       y="-0.040420745"
       height="1.0808415">
      <feGaussianBlur
         inkscape:collect="always"
         stdDeviation="0.3081152"
         id="feGaussianBlur5522" />
    </filter>
    <filter
       inkscape:collect="always"
       style="color-interpolation-filters:sRGB"
       id="filter5524"
       x="-0.04849961"
       width="1.0969992"
       y="-0.039710365"
       height="1.0794207">
      <feGaussianBlur
         inkscape:collect="always"
         stdDeviation="0.3081152"
         id="feGaussianBlur5526" />
    </filter>
    <filter
       inkscape:collect="always"
       style="color-interpolation-filters:sRGB"
       id="filter5528"
       x="-0.051027164"
       width="1.1020544"
       y="-0.039656762"
       height="1.0793135">
      <feGaussianBlur
         inkscape:collect="always"
         stdDeviation="0.3081152"
         id="feGaussianBlur5530" />
    </filter>
  </defs>
  <sodipodi:namedview
     id="base"
     pagecolor="#ffffff"
     bordercolor="#666666"
     borderopacity="1.0"
     inkscape:pageopacity="0"
     inkscape:pageshadow="2"
     inkscape:zoom="0.5"
     inkscape:cx="1044.9496"
     inkscape:cy="267.60714"
     inkscape:document-units="mm"
     inkscape:current-layer="layer1"
     showgrid="false"
     inkscape:snap-others="true"
     inkscape:window-width="1401"
     inkscape:window-height="870"
     inkscape:window-x="39"
     inkscape:window-y="0"
     inkscape:window-maximized="1"
     units="px"
     inkscape:showpageshadow="false"
     inkscape:pagecheckerboard="true"
     showborder="true"
     fit-margin-top="0"
     fit-margin-left="0"
     fit-margin-right="0"
     fit-margin-bottom="0" />
  <metadata
     id="metadata5">
    <rdf:RDF>
      <cc:Work
         rdf:about="">
        <dc:format>image/svg+xml</dc:format>
        <dc:type
           rdf:resource="http://purl.org/dc/dcmitype/StillImage" />
        <dc:title></dc:title>
      </cc:Work>
    </rdf:RDF>
  </metadata>
  <g
     inkscape:label="Layer 1"
     inkscape:groupmode="layer"
     id="layer1"
     transform="translate(-1.8064393,11.372261)">
    <flowRoot
       xml:space="preserve"
       id="flowRoot4522"
       style="font-style:normal;font-weight:normal;font-size:40px;line-height:1.25;font-family:sans-serif;letter-spacing:20.29000092px;word-spacing:0px;fill:#000000;fill-opacity:1;stroke:none"><flowRegion
         id="flowRegion4524"><rect
           id="rect4526"
           width="52"
           height="48"
           x="539"
           y="407.51968" /></flowRegion><flowPara
         id="flowPara4528" /></flowRoot>    <flowRoot
       xml:space="preserve"
       id="flowRoot4530"
       style="font-style:normal;font-weight:normal;font-size:40px;line-height:1.25;font-family:sans-serif;letter-spacing:20.29000092px;word-spacing:0px;fill:#000000;fill-opacity:1;stroke:none"><flowRegion
         id="flowRegion4532"><rect
           id="rect4534"
           width="64"
           height="103"
           x="570"
           y="416.51968" /></flowRegion><flowPara
         id="flowPara4536" /></flowRoot>    <flowRoot
       xml:space="preserve"
       id="flowRoot4538"
       style="font-style:normal;font-weight:normal;font-size:40px;line-height:1.25;font-family:sans-serif;letter-spacing:20.29000092px;word-spacing:0px;fill:#000000;fill-opacity:1;stroke:none"><flowRegion
         id="flowRegion4540"><rect
           id="rect4542"
           width="57"
           height="99"
           x="570"
           y="412.51968" /></flowRegion><flowPara
         id="flowPara4544" /></flowRoot>    <flowRoot
       xml:space="preserve"
       id="flowRoot4546"
       style="font-style:normal;font-weight:normal;font-size:40px;line-height:1.25;font-family:sans-serif;letter-spacing:20.29000092px;word-spacing:0px;fill:#000000;fill-opacity:1;stroke:none"><flowRegion
         id="flowRegion4548"><rect
           id="rect4550"
           width="87"
           height="440"
           x="321"
           y="413.51968" /></flowRegion><flowPara
         id="flowPara4552" /></flowRoot>    <g
       id="g6659"
       transform="matrix(4.242903,0,0,4.5926873,-376.41006,-440.65419)">
      <g
         style="opacity:1;filter:url(#filter5528)"
         transform="translate(0,-5.8208333)"
         id="g4878">
        <path
           inkscape:connector-curvature="0"
           id="path4797"
           style="font-style:italic;font-variant:normal;font-weight:bold;font-stretch:normal;font-size:25.17450714px;line-height:31.46813774px;font-family:Sansita;-inkscape-font-specification:'Sansita, Bold Italic';font-variant-ligatures:normal;font-variant-caps:normal;font-variant-numeric:normal;font-feature-settings:normal;text-align:start;letter-spacing:11.56139183px;word-spacing:0px;writing-mode:lr-tb;text-anchor:start;fill:#000000;fill-opacity:1;stroke:#4954e5;stroke-width:4.23333311;stroke-linecap:round;stroke-linejoin:round;stroke-miterlimit:4;stroke-dasharray:none;stroke-opacity:1;filter:url(#filter4728)"
           d="m 194.13994,102.155 c -3.97758,0 -7.07404,2.06431 -7.07404,5.337 0,2.3664 1.58599,3.59995 3.17199,4.68246 1.51047,1.05732 3.17199,1.98878 3.17199,3.59995 0,1.43495 -1.25873,2.34123 -2.64333,2.34123 -1.13285,0 -1.73704,-0.62936 -1.73704,-1.76222 0,-0.60418 0.12587,-1.38459 0.37762,-2.01396 -0.45314,-0.20139 -1.00698,-0.32727 -1.51047,-0.32727 -1.51047,0 -2.59298,0.98181 -2.59298,2.5678 0,2.44193 2.51745,3.22234 4.78316,3.22234 3.80135,0 7.30061,-2.06431 7.30061,-5.46287 0,-2.29088 -1.586,-3.49925 -3.14682,-4.55658 -1.61116,-1.05733 -3.27268,-1.93844 -3.27268,-3.59996 0,-1.33425 1.0825,-2.44192 2.41675,-2.44192 1.0825,0 1.58599,0.73006 1.58599,1.83773 0,0.55384 -0.12587,1.33425 -0.37761,1.91327 0.37761,0.17622 0.8811,0.30209 1.33425,0.30209 1.30907,0 2.66849,-0.85593 2.66849,-2.64332 0,-2.29088 -2.19018,-2.99577 -4.45588,-2.99577 z" />
        <path
           inkscape:connector-curvature="0"
           id="path4763"
           style="font-style:italic;font-variant:normal;font-weight:bold;font-stretch:normal;font-size:25.17450714px;line-height:31.46813774px;font-family:Sansita;-inkscape-font-specification:'Sansita, Bold Italic';font-variant-ligatures:normal;font-variant-caps:normal;font-variant-numeric:normal;font-feature-settings:normal;text-align:start;letter-spacing:11.56139183px;word-spacing:0px;writing-mode:lr-tb;text-anchor:start;fill:#87aade;fill-opacity:1;stroke:#87aade;stroke-width:2.11666656;stroke-linecap:round;stroke-linejoin:round;stroke-miterlimit:4;stroke-dasharray:none"
           d="m 192.94025,101.15541 c -3.97757,0 -7.07403,2.06431 -7.07403,5.337 0,2.3664 1.58599,3.59995 3.17199,4.68246 1.51047,1.05733 3.17198,1.98878 3.17198,3.59995 0,1.43495 -1.25872,2.34123 -2.64332,2.34123 -1.13285,0 -1.73704,-0.62936 -1.73704,-1.76221 0,-0.60419 0.12587,-1.3846 0.37762,-2.01397 -0.45314,-0.20139 -1.00698,-0.32726 -1.51047,-0.32726 -1.51047,0 -2.59298,0.9818 -2.59298,2.5678 0,2.44192 2.51745,3.22233 4.78316,3.22233 3.80135,0 7.30061,-2.06431 7.30061,-5.46287 0,-2.29088 -1.586,-3.49925 -3.14682,-4.55658 -1.61117,-1.05733 -3.27268,-1.93844 -3.27268,-3.59996 0,-1.33424 1.0825,-2.44192 2.41675,-2.44192 1.0825,0 1.58599,0.73006 1.58599,1.83774 0,0.55384 -0.12587,1.33425 -0.37761,1.91326 0.37761,0.17622 0.8811,0.30209 1.33425,0.30209 1.30907,0 2.66849,-0.85593 2.66849,-2.64332 0,-2.29088 -2.19018,-2.99577 -4.45589,-2.99577 z" />
        <path
           inkscape:connector-curvature="0"
           id="path4746"
           style="font-style:italic;font-variant:normal;font-weight:bold;font-stretch:normal;font-size:25.17450714px;line-height:31.46813774px;font-family:Sansita;-inkscape-font-specification:'Sansita, Bold Italic';font-variant-ligatures:normal;font-variant-caps:normal;font-variant-numeric:normal;font-feature-settings:normal;text-align:start;letter-spacing:11.56139183px;word-spacing:0px;writing-mode:lr-tb;text-anchor:start;fill:#ffffff;fill-opacity:1;stroke:none;stroke-width:0.6293627"
           d="m 192.94025,101.15541 c -3.97757,0 -7.07403,2.06431 -7.07403,5.337 0,2.3664 1.58599,3.59995 3.17199,4.68246 1.51047,1.05733 3.17198,1.98878 3.17198,3.59995 0,1.43495 -1.25872,2.34123 -2.64332,2.34123 -1.13285,0 -1.73704,-0.62936 -1.73704,-1.76221 0,-0.60419 0.12587,-1.3846 0.37762,-2.01397 -0.45314,-0.20139 -1.00698,-0.32726 -1.51047,-0.32726 -1.51047,0 -2.59298,0.9818 -2.59298,2.5678 0,2.44192 2.51745,3.22233 4.78316,3.22233 3.80135,0 7.30061,-2.06431 7.30061,-5.46287 0,-2.29088 -1.586,-3.49925 -3.14682,-4.55658 -1.61117,-1.05733 -3.27268,-1.93844 -3.27268,-3.59996 0,-1.33424 1.0825,-2.44192 2.41675,-2.44192 1.0825,0 1.58599,0.73006 1.58599,1.83774 0,0.55384 -0.12587,1.33425 -0.37761,1.91326 0.37761,0.17622 0.8811,0.30209 1.33425,0.30209 1.30907,0 2.66849,-0.85593 2.66849,-2.64332 0,-2.29088 -2.19018,-2.99577 -4.45589,-2.99577 z" />
      </g>
      <g
         style="opacity:1;filter:url(#filter5524)"
         transform="translate(12.964583)"
         id="g4883">
        <path
           inkscape:connector-curvature="0"
           id="path4795"
           style="font-style:italic;font-variant:normal;font-weight:bold;font-stretch:normal;font-size:25.17450714px;line-height:31.46813774px;font-family:Sansita;-inkscape-font-specification:'Sansita, Bold Italic';font-variant-ligatures:normal;font-variant-caps:normal;font-variant-numeric:normal;font-feature-settings:normal;text-align:start;letter-spacing:11.56139183px;word-spacing:0px;writing-mode:lr-tb;text-anchor:start;fill:#000000;fill-opacity:1;stroke:#4954e5;stroke-width:4.23333311;stroke-linecap:round;stroke-linejoin:round;stroke-miterlimit:4;stroke-dasharray:none;stroke-opacity:1;filter:url(#filter4728)"
           d="m 173.28955,110.89056 -4.1538,0.45314 -0.80558,5.18595 c -0.42797,0.40279 -1.2839,0.52866 -1.86292,0.52866 -2.165,0 -2.66849,-2.01396 -2.66849,-4.00275 0,-3.47408 1.53564,-9.11317 4.48106,-9.11317 1.20838,0 1.56082,1.05733 1.56082,2.01396 0,0.67971 -0.12587,1.35943 -0.27692,1.91326 0.30209,0.2014 0.78041,0.27692 1.1832,0.27692 1.51047,0 2.81955,-1.03215 2.81955,-2.81954 0,-2.26571 -2.19019,-3.17199 -4.63211,-3.17199 -6.14258,0 -9.41527,5.51322 -9.41527,11.17748 0,3.92723 1.58599,6.44468 4.90903,6.44468 1.56082,0 3.07129,-0.62937 3.97757,-1.43495 0.0504,0.75523 0.75524,1.43495 1.96361,1.43495 0.50349,0 0.90629,-0.12588 1.23355,-0.42797 0.0252,-2.71885 0.52867,-5.94118 1.6867,-8.45863 z" />
        <path
           inkscape:connector-curvature="0"
           id="path4761"
           style="font-style:italic;font-variant:normal;font-weight:bold;font-stretch:normal;font-size:25.17450714px;line-height:31.46813774px;font-family:Sansita;-inkscape-font-specification:'Sansita, Bold Italic';font-variant-ligatures:normal;font-variant-caps:normal;font-variant-numeric:normal;font-feature-settings:normal;text-align:start;letter-spacing:11.56139183px;word-spacing:0px;writing-mode:lr-tb;text-anchor:start;fill:#87aade;fill-opacity:1;stroke:#87aade;stroke-width:2.11666656;stroke-linecap:round;stroke-linejoin:round;stroke-miterlimit:4;stroke-dasharray:none"
           d="m 172.08987,109.89097 -4.1538,0.45314 -0.80558,5.18595 c -0.42797,0.40279 -1.2839,0.52866 -1.86292,0.52866 -2.165,0 -2.66849,-2.01396 -2.66849,-4.00274 0,-3.47409 1.53564,-9.11318 4.48106,-9.11318 1.20837,0 1.56082,1.05733 1.56082,2.01396 0,0.67972 -0.12587,1.35943 -0.27692,1.91327 0.30209,0.20139 0.78041,0.27692 1.1832,0.27692 1.51047,0 2.81954,-1.03216 2.81954,-2.81955 0,-2.2657 -2.19018,-3.17199 -4.6321,-3.17199 -6.14258,0 -9.41527,5.51322 -9.41527,11.17748 0,3.92723 1.58599,6.44468 4.90903,6.44468 1.56082,0 3.07129,-0.62936 3.97757,-1.43495 0.0504,0.75524 0.75524,1.43495 1.96361,1.43495 0.50349,0 0.90628,-0.12587 1.23355,-0.42797 0.0252,-2.71884 0.52867,-5.94118 1.6867,-8.45863 z" />
        <path
           inkscape:connector-curvature="0"
           id="path4744"
           style="font-style:italic;font-variant:normal;font-weight:bold;font-stretch:normal;font-size:25.17450714px;line-height:31.46813774px;font-family:Sansita;-inkscape-font-specification:'Sansita, Bold Italic';font-variant-ligatures:normal;font-variant-caps:normal;font-variant-numeric:normal;font-feature-settings:normal;text-align:start;letter-spacing:11.56139183px;word-spacing:0px;writing-mode:lr-tb;text-anchor:start;fill:#ffffff;fill-opacity:1;stroke:none;stroke-width:0.6293627"
           d="m 172.08987,109.89097 -4.1538,0.45314 -0.80558,5.18595 c -0.42797,0.40279 -1.2839,0.52866 -1.86292,0.52866 -2.165,0 -2.66849,-2.01396 -2.66849,-4.00274 0,-3.47409 1.53564,-9.11318 4.48106,-9.11318 1.20837,0 1.56082,1.05733 1.56082,2.01396 0,0.67972 -0.12587,1.35943 -0.27692,1.91327 0.30209,0.20139 0.78041,0.27692 1.1832,0.27692 1.51047,0 2.81954,-1.03216 2.81954,-2.81955 0,-2.2657 -2.19018,-3.17199 -4.6321,-3.17199 -6.14258,0 -9.41527,5.51322 -9.41527,11.17748 0,3.92723 1.58599,6.44468 4.90903,6.44468 1.56082,0 3.07129,-0.62936 3.97757,-1.43495 0.0504,0.75524 0.75524,1.43495 1.96361,1.43495 0.50349,0 0.90628,-0.12587 1.23355,-0.42797 0.0252,-2.71884 0.52867,-5.94118 1.6867,-8.45863 z" />
      </g>
      <g
         style="opacity:1;filter:url(#filter5520)"
         transform="translate(25.929167,-5.8208333)"
         id="g4897">
        <g
           id="g4888">
          <path
             d="m 135.55887,102.65849 -3.14682,16.61518 h 4.1538 l 2.92024,-15.05436 c 0.3021,-0.0503 0.67971,-0.1007 1.15803,-0.1007 1.71186,0 2.3664,0.95663 2.3664,2.7692 0,2.54262 -1.30907,4.00275 -3.77617,4.00275 -0.15105,0 -0.22657,0 -0.4028,-0.0252 1.61117,5.81531 2.5678,8.91178 5.48805,8.91178 1.1832,0 2.11465,-0.52867 2.4671,-1.6867 -1.23355,-0.55383 -2.61815,-2.5678 -3.92723,-6.0167 2.54263,-0.47832 4.1538,-2.51745 4.1538,-5.36217 0,-3.62513 -2.69367,-4.22932 -6.4195,-4.22932 -1.53565,0 -3.34821,0.1007 -5.0349,0.17622 z"
             style="font-style:italic;font-variant:normal;font-weight:bold;font-stretch:normal;font-size:25.17450714px;line-height:31.46813774px;font-family:Sansita;-inkscape-font-specification:'Sansita, Bold Italic';font-variant-ligatures:normal;font-variant-caps:normal;font-variant-numeric:normal;font-feature-settings:normal;text-align:start;letter-spacing:11.56139183px;word-spacing:0px;writing-mode:lr-tb;text-anchor:start;fill:#000000;fill-opacity:1;stroke:#4954e5;stroke-width:4.23333311;stroke-linecap:round;stroke-linejoin:round;stroke-miterlimit:4;stroke-dasharray:none;stroke-opacity:1;filter:url(#filter4728)"
             id="path4793"
             inkscape:connector-curvature="0" />
          <path
             d="m 134.35919,101.6589 -3.14682,16.61518 h 4.1538 l 2.92024,-15.05436 c 0.30209,-0.0503 0.67971,-0.10069 1.15803,-0.10069 1.71186,0 2.3664,0.95663 2.3664,2.76919 0,2.54263 -1.30907,4.00275 -3.77617,4.00275 -0.15105,0 -0.22658,0 -0.4028,-0.0252 1.61117,5.81531 2.5678,8.91178 5.48805,8.91178 1.1832,0 2.11465,-0.52867 2.4671,-1.68669 -1.23355,-0.55384 -2.61815,-2.5678 -3.92723,-6.01671 2.54263,-0.47832 4.1538,-2.51745 4.1538,-5.36217 0,-3.62513 -2.69367,-4.22932 -6.4195,-4.22932 -1.53565,0 -3.34821,0.1007 -5.0349,0.17622 z"
             style="font-style:italic;font-variant:normal;font-weight:bold;font-stretch:normal;font-size:25.17450714px;line-height:31.46813774px;font-family:Sansita;-inkscape-font-specification:'Sansita, Bold Italic';font-variant-ligatures:normal;font-variant-caps:normal;font-variant-numeric:normal;font-feature-settings:normal;text-align:start;letter-spacing:11.56139183px;word-spacing:0px;writing-mode:lr-tb;text-anchor:start;fill:#87aade;fill-opacity:1;stroke:#87aade;stroke-width:2.11666656;stroke-linecap:round;stroke-linejoin:round;stroke-miterlimit:4;stroke-dasharray:none"
             id="path4759"
             inkscape:connector-curvature="0" />
          <path
             d="m 134.35919,101.6589 -3.14682,16.61518 h 4.1538 l 2.92024,-15.05436 c 0.30209,-0.0503 0.67971,-0.10069 1.15803,-0.10069 1.71186,0 2.3664,0.95663 2.3664,2.76919 0,2.54263 -1.30907,4.00275 -3.77617,4.00275 -0.15105,0 -0.22658,0 -0.4028,-0.0252 1.61117,5.81531 2.5678,8.91178 5.48805,8.91178 1.1832,0 2.11465,-0.52867 2.4671,-1.68669 -1.23355,-0.55384 -2.61815,-2.5678 -3.92723,-6.01671 2.54263,-0.47832 4.1538,-2.51745 4.1538,-5.36217 0,-3.62513 -2.69367,-4.22932 -6.4195,-4.22932 -1.53565,0 -3.34821,0.1007 -5.0349,0.17622 z"
             style="font-style:italic;font-variant:normal;font-weight:bold;font-stretch:normal;font-size:25.17450714px;line-height:31.46813774px;font-family:Sansita;-inkscape-font-specification:'Sansita, Bold Italic';font-variant-ligatures:normal;font-variant-caps:normal;font-variant-numeric:normal;font-feature-settings:normal;text-align:start;letter-spacing:11.56139183px;word-spacing:0px;writing-mode:lr-tb;text-anchor:start;fill:#ffffff;fill-opacity:1;stroke:none;stroke-width:0.6293627"
             id="path4742"
             inkscape:connector-curvature="0" />
        </g>
      </g>
      <g
         style="opacity:1;filter:url(#filter5516)"
         transform="translate(39.158333,-7.4083333)"
         id="g4902">
        <path
           inkscape:connector-curvature="0"
           id="path4791"
           style="font-style:italic;font-variant:normal;font-weight:bold;font-stretch:normal;font-size:25.17450714px;line-height:31.46813774px;font-family:Sansita;-inkscape-font-specification:'Sansita, Bold Italic';font-variant-ligatures:normal;font-variant-caps:normal;font-variant-numeric:normal;font-feature-settings:normal;text-align:start;letter-spacing:11.56139183px;word-spacing:0px;writing-mode:lr-tb;text-anchor:start;fill:#000000;fill-opacity:1;stroke:#4954e5;stroke-width:4.23333311;stroke-linecap:round;stroke-linejoin:round;stroke-miterlimit:4;stroke-dasharray:none;stroke-opacity:1;filter:url(#filter4728)"
           d="m 118.68723,111.94788 h -4.88386 c -0.90628,0 -1.40977,0.62937 -1.40977,1.4853 0,0.47832 0.17622,1.00698 0.50349,1.33425 0.27692,-0.22657 0.78041,-0.30209 1.30907,-0.30209 h 4.68246 c 0.90628,0 1.4853,-0.60419 1.4853,-1.51047 0,-0.42797 -0.15105,-0.95664 -0.47832,-1.25873 -0.22657,0.17622 -0.78041,0.25174 -1.20837,0.25174 z" />
        <path
           inkscape:connector-curvature="0"
           id="path4757"
           style="font-style:italic;font-variant:normal;font-weight:bold;font-stretch:normal;font-size:25.17450714px;line-height:31.46813774px;font-family:Sansita;-inkscape-font-specification:'Sansita, Bold Italic';font-variant-ligatures:normal;font-variant-caps:normal;font-variant-numeric:normal;font-feature-settings:normal;text-align:start;letter-spacing:11.56139183px;word-spacing:0px;writing-mode:lr-tb;text-anchor:start;fill:#87aade;fill-opacity:1;stroke:#87aade;stroke-width:2.11666656;stroke-linecap:round;stroke-linejoin:round;stroke-miterlimit:4;stroke-dasharray:none"
           d="m 117.48754,110.9483 h -4.88385 c -0.90628,0 -1.40977,0.62936 -1.40977,1.48529 0,0.47832 0.17622,1.00698 0.50349,1.33425 0.27692,-0.22657 0.78041,-0.30209 1.30907,-0.30209 h 4.68246 c 0.90628,0 1.4853,-0.60419 1.4853,-1.51047 0,-0.42797 -0.15105,-0.95663 -0.47832,-1.25873 -0.22657,0.17622 -0.78041,0.25175 -1.20838,0.25175 z" />
        <path
           inkscape:connector-curvature="0"
           id="path4740"
           style="font-style:italic;font-variant:normal;font-weight:bold;font-stretch:normal;font-size:25.17450714px;line-height:31.46813774px;font-family:Sansita;-inkscape-font-specification:'Sansita, Bold Italic';font-variant-ligatures:normal;font-variant-caps:normal;font-variant-numeric:normal;font-feature-settings:normal;text-align:start;letter-spacing:11.56139183px;word-spacing:0px;writing-mode:lr-tb;text-anchor:start;fill:#ffffff;fill-opacity:1;stroke:none;stroke-width:0.6293627"
           d="m 117.48754,110.9483 h -4.88385 c -0.90628,0 -1.40977,0.62936 -1.40977,1.48529 0,0.47832 0.17622,1.00698 0.50349,1.33425 0.27692,-0.22657 0.78041,-0.30209 1.30907,-0.30209 h 4.68246 c 0.90628,0 1.4853,-0.60419 1.4853,-1.51047 0,-0.42797 -0.15105,-0.95663 -0.47832,-1.25873 -0.22657,0.17622 -0.78041,0.25175 -1.20838,0.25175 z" />
      </g>
      <g
         style="opacity:1;filter:url(#filter5512)"
         transform="translate(52.05892,-5.8208333)"
         id="g4907">
        <path
           inkscape:connector-curvature="0"
           id="path4789"
           style="font-style:italic;font-variant:normal;font-weight:bold;font-stretch:normal;font-size:25.17450714px;line-height:31.46813774px;font-family:Sansita;-inkscape-font-specification:'Sansita, Bold Italic';font-variant-ligatures:normal;font-variant-caps:normal;font-variant-numeric:normal;font-feature-settings:normal;text-align:start;letter-spacing:11.56139183px;word-spacing:0px;writing-mode:lr-tb;text-anchor:start;fill:#000000;fill-opacity:1;stroke:#4954e5;stroke-width:4.23333311;stroke-linecap:round;stroke-linejoin:round;stroke-miterlimit:4;stroke-dasharray:none;stroke-opacity:1;filter:url(#filter4728)"
           d="m 98.000467,116.0765 2.517453,-13.41801 h -4.128622 l -1.409772,7.47683 h -4.606935 l 1.485296,-7.47683 h -4.153794 l -3.197162,16.61518 h 4.103445 l 1.384598,-7.25026 h 4.632109 l -0.579014,3.44891 c -0.176221,1.1832 -0.251745,1.76221 -0.251745,2.21535 0,1.23355 0.579014,2.08949 2.06431,2.08949 0.780409,0 1.611168,-0.22657 2.29088,-0.73006 -0.201396,-0.35245 -0.327269,-0.85594 -0.327269,-1.35943 0,-0.45314 0.100698,-1.13285 0.176222,-1.61117 z" />
        <path
           inkscape:connector-curvature="0"
           id="path4755"
           style="font-style:italic;font-variant:normal;font-weight:bold;font-stretch:normal;font-size:25.17450714px;line-height:31.46813774px;font-family:Sansita;-inkscape-font-specification:'Sansita, Bold Italic';font-variant-ligatures:normal;font-variant-caps:normal;font-variant-numeric:normal;font-feature-settings:normal;text-align:start;letter-spacing:11.56139183px;word-spacing:0px;writing-mode:lr-tb;text-anchor:start;fill:#87aade;fill-opacity:1;stroke:#87aade;stroke-width:2.11666656;stroke-linecap:round;stroke-linejoin:round;stroke-miterlimit:4;stroke-dasharray:none"
           d="m 96.800786,115.07692 2.517451,-13.41802 h -4.128619 l -1.409773,7.47683 H 89.17291 l 1.485296,-7.47683 h -4.153793 l -3.197163,16.61518 h 4.103445 l 1.384598,-7.25026 h 4.632109 l -0.579014,3.44891 c -0.176221,1.1832 -0.251745,1.76221 -0.251745,2.21535 0,1.23356 0.579014,2.08949 2.06431,2.08949 0.78041,0 1.611168,-0.22657 2.29088,-0.73006 -0.201396,-0.35245 -0.327269,-0.85594 -0.327269,-1.35943 0,-0.45314 0.100699,-1.13285 0.176222,-1.61116 z" />
        <path
           inkscape:connector-curvature="0"
           id="path4738"
           style="font-style:italic;font-variant:normal;font-weight:bold;font-stretch:normal;font-size:25.17450714px;line-height:31.46813774px;font-family:Sansita;-inkscape-font-specification:'Sansita, Bold Italic';font-variant-ligatures:normal;font-variant-caps:normal;font-variant-numeric:normal;font-feature-settings:normal;text-align:start;letter-spacing:11.56139183px;word-spacing:0px;writing-mode:lr-tb;text-anchor:start;fill:#ffffff;fill-opacity:1;stroke:none;stroke-width:0.6293627"
           d="m 96.800786,115.07692 2.517451,-13.41802 h -4.128619 l -1.409773,7.47683 H 89.17291 l 1.485296,-7.47683 h -4.153793 l -3.197163,16.61518 h 4.103445 l 1.384598,-7.25026 h 4.632109 l -0.579014,3.44891 c -0.176221,1.1832 -0.251745,1.76221 -0.251745,2.21535 0,1.23356 0.579014,2.08949 2.06431,2.08949 0.78041,0 1.611168,-0.22657 2.29088,-0.73006 -0.201396,-0.35245 -0.327269,-0.85594 -0.327269,-1.35943 0,-0.45314 0.100699,-1.13285 0.176222,-1.61116 z" />
      </g>
      <g
         style="opacity:1;filter:url(#filter5508)"
         transform="translate(64.822917)"
         id="g4912">
        <path
           inkscape:connector-curvature="0"
           id="path4787"
           style="font-style:italic;font-variant:normal;font-weight:bold;font-stretch:normal;font-size:25.17450714px;line-height:31.46813774px;font-family:Sansita;-inkscape-font-specification:'Sansita, Bold Italic';font-variant-ligatures:normal;font-variant-caps:normal;font-variant-numeric:normal;font-feature-settings:normal;text-align:start;letter-spacing:11.56139183px;word-spacing:0px;writing-mode:lr-tb;text-anchor:start;fill:#000000;fill-opacity:1;stroke:#4954e5;stroke-width:4.23333311;stroke-linecap:round;stroke-linejoin:round;stroke-miterlimit:4;stroke-dasharray:none;stroke-opacity:1;filter:url(#filter4728)"
           d="m 68.701278,102.155 c -6.14258,0 -9.390091,5.56357 -9.390091,11.10196 0,4.35519 2.013961,6.5202 5.86566,6.5202 3.474082,0 6.192929,-1.76222 6.192929,-4.02792 0,-0.55384 -0.176222,-1.15803 -0.730061,-1.51048 -0.906282,1.40978 -2.240531,2.39158 -4.027921,2.39158 -2.215357,0 -2.995766,-1.46012 -2.995766,-3.70065 0,-3.07129 1.434947,-8.9873 4.380364,-8.9873 1.208376,0 1.560819,1.03216 1.560819,2.01396 0,0.65454 -0.100698,1.35943 -0.276919,1.91326 0.302094,0.2014 0.805584,0.27692 1.208376,0.27692 1.510471,0 2.819545,-1.03215 2.819545,-2.81954 0,-2.26571 -2.165008,-3.17199 -4.606935,-3.17199 z" />
        <path
           inkscape:connector-curvature="0"
           id="path4753"
           style="font-style:italic;font-variant:normal;font-weight:bold;font-stretch:normal;font-size:25.17450714px;line-height:31.46813774px;font-family:Sansita;-inkscape-font-specification:'Sansita, Bold Italic';font-variant-ligatures:normal;font-variant-caps:normal;font-variant-numeric:normal;font-feature-settings:normal;text-align:start;letter-spacing:11.56139183px;word-spacing:0px;writing-mode:lr-tb;text-anchor:start;fill:#87aade;fill-opacity:1;stroke:#87aade;stroke-width:2.11666656;stroke-linecap:round;stroke-linejoin:round;stroke-miterlimit:4;stroke-dasharray:none"
           d="m 67.501597,101.15541 c -6.142579,0 -9.390091,5.56357 -9.390091,11.10196 0,4.35519 2.013961,6.5202 5.86566,6.5202 3.474082,0 6.192929,-1.76222 6.192929,-4.02792 0,-0.55384 -0.176221,-1.15803 -0.730061,-1.51047 -0.906282,1.40977 -2.240531,2.39158 -4.027921,2.39158 -2.215356,0 -2.995766,-1.46013 -2.995766,-3.70066 0,-3.07129 1.434947,-8.9873 4.380364,-8.9873 1.208376,0 1.56082,1.03216 1.56082,2.01396 0,0.65454 -0.100698,1.35943 -0.27692,1.91327 0.302094,0.20139 0.805584,0.27692 1.208376,0.27692 1.510471,0 2.819545,-1.03216 2.819545,-2.81955 0,-2.2657 -2.165007,-3.17199 -4.606935,-3.17199 z" />
        <path
           inkscape:connector-curvature="0"
           id="path4736"
           style="font-style:italic;font-variant:normal;font-weight:bold;font-stretch:normal;font-size:25.17450714px;line-height:31.46813774px;font-family:Sansita;-inkscape-font-specification:'Sansita, Bold Italic';font-variant-ligatures:normal;font-variant-caps:normal;font-variant-numeric:normal;font-feature-settings:normal;text-align:start;letter-spacing:11.56139183px;word-spacing:0px;writing-mode:lr-tb;text-anchor:start;fill:#ffffff;fill-opacity:1;stroke:none;stroke-width:0.6293627"
           d="m 67.501597,101.15541 c -6.142579,0 -9.390091,5.56357 -9.390091,11.10196 0,4.35519 2.013961,6.5202 5.86566,6.5202 3.474082,0 6.192929,-1.76222 6.192929,-4.02792 0,-0.55384 -0.176221,-1.15803 -0.730061,-1.51047 -0.906282,1.40977 -2.240531,2.39158 -4.027921,2.39158 -2.215356,0 -2.995766,-1.46013 -2.995766,-3.70066 0,-3.07129 1.434947,-8.9873 4.380364,-8.9873 1.208376,0 1.56082,1.03216 1.56082,2.01396 0,0.65454 -0.100698,1.35943 -0.27692,1.91327 0.302094,0.20139 0.805584,0.27692 1.208376,0.27692 1.510471,0 2.819545,-1.03216 2.819545,-2.81955 0,-2.2657 -2.165007,-3.17199 -4.606935,-3.17199 z" />
      </g>
      <g
         style="opacity:1;filter:url(#filter5504)"
         transform="translate(78.052083,-5.8208333)"
         id="g4917">
        <path
           inkscape:connector-curvature="0"
           id="path4785"
           style="font-style:italic;font-variant:normal;font-weight:bold;font-stretch:normal;font-size:25.17450714px;line-height:31.46813774px;font-family:Sansita;-inkscape-font-specification:'Sansita, Bold Italic';font-variant-ligatures:normal;font-variant-caps:normal;font-variant-numeric:normal;font-feature-settings:normal;text-align:start;letter-spacing:11.56139183px;word-spacing:0px;writing-mode:lr-tb;text-anchor:start;fill:#000000;fill-opacity:1;stroke:#4954e5;stroke-width:4.23333311;stroke-linecap:round;stroke-linejoin:round;stroke-miterlimit:4;stroke-dasharray:none;stroke-opacity:1;filter:url(#filter4728)"
           d="m 35.32578,102.65849 -3.146813,16.61518 h 4.153794 l 2.920242,-15.05436 c 0.302095,-0.0503 0.679712,-0.1007 1.158028,-0.1007 1.711866,0 2.366403,0.95663 2.366403,2.7692 0,2.54262 -1.309074,4.00275 -3.776176,4.00275 -0.151047,0 -0.22657,0 -0.402792,-0.0252 1.611169,5.81531 2.5678,8.91178 5.488043,8.91178 1.183202,0 2.114658,-0.52867 2.467102,-1.6867 -1.233551,-0.55383 -2.618149,-2.5678 -3.927224,-6.0167 2.542626,-0.47832 4.153794,-2.51745 4.153794,-5.36217 0,-3.62513 -2.693672,-4.22932 -6.419499,-4.22932 -1.535645,0 -3.34821,0.1007 -5.034902,0.17622 z" />
        <path
           inkscape:connector-curvature="0"
           id="path4751"
           style="font-style:italic;font-variant:normal;font-weight:bold;font-stretch:normal;font-size:25.17450714px;line-height:31.46813774px;font-family:Sansita;-inkscape-font-specification:'Sansita, Bold Italic';font-variant-ligatures:normal;font-variant-caps:normal;font-variant-numeric:normal;font-feature-settings:normal;text-align:start;letter-spacing:11.56139183px;word-spacing:0px;writing-mode:lr-tb;text-anchor:start;fill:#87aade;fill-opacity:1;stroke:#87aade;stroke-width:2.11666656;stroke-linecap:round;stroke-linejoin:round;stroke-miterlimit:4;stroke-dasharray:none"
           d="m 34.1261,101.6589 -3.146814,16.61518 h 4.153794 l 2.920243,-15.05436 c 0.302094,-0.0503 0.679711,-0.10069 1.158027,-0.10069 1.711866,0 2.366404,0.95663 2.366404,2.76919 0,2.54263 -1.309075,4.00275 -3.776176,4.00275 -0.151047,0 -0.226571,0 -0.402793,-0.0252 1.611169,5.81531 2.5678,8.91178 5.488043,8.91178 1.183202,0 2.114659,-0.52867 2.467102,-1.68669 -1.233551,-0.55384 -2.618149,-2.5678 -3.927223,-6.01671 2.542625,-0.47832 4.153793,-2.51745 4.153793,-5.36217 0,-3.62513 -2.693672,-4.22932 -6.419499,-4.22932 -1.535645,0 -3.348209,0.1007 -5.034901,0.17622 z" />
        <path
           inkscape:connector-curvature="0"
           id="path4734"
           style="font-style:italic;font-variant:normal;font-weight:bold;font-stretch:normal;font-size:25.17450714px;line-height:31.46813774px;font-family:Sansita;-inkscape-font-specification:'Sansita, Bold Italic';font-variant-ligatures:normal;font-variant-caps:normal;font-variant-numeric:normal;font-feature-settings:normal;text-align:start;letter-spacing:11.56139183px;word-spacing:0px;writing-mode:lr-tb;text-anchor:start;fill:#ffffff;fill-opacity:1;stroke:none;stroke-width:0.6293627"
           d="m 34.1261,101.6589 -3.146814,16.61518 h 4.153794 l 2.920243,-15.05436 c 0.302094,-0.0503 0.679711,-0.10069 1.158027,-0.10069 1.711866,0 2.366404,0.95663 2.366404,2.76919 0,2.54263 -1.309075,4.00275 -3.776176,4.00275 -0.151047,0 -0.226571,0 -0.402793,-0.0252 1.611169,5.81531 2.5678,8.91178 5.488043,8.91178 1.183202,0 2.114659,-0.52867 2.467102,-1.68669 -1.233551,-0.55384 -2.618149,-2.5678 -3.927223,-6.01671 2.542625,-0.47832 4.153793,-2.51745 4.153793,-5.36217 0,-3.62513 -2.693672,-4.22932 -6.419499,-4.22932 -1.535645,0 -3.348209,0.1007 -5.034901,0.17622 z" />
      </g>
      <g
         style="opacity:1;filter:url(#filter5500)"
         transform="translate(95.869339)"
         id="g4922">
        <path
           inkscape:connector-curvature="0"
           id="path4783"
           style="font-style:italic;font-variant:normal;font-weight:bold;font-stretch:normal;font-size:25.17450714px;line-height:31.46813774px;font-family:Sansita;-inkscape-font-specification:'Sansita, Bold Italic';font-variant-ligatures:normal;font-variant-caps:normal;font-variant-numeric:normal;font-feature-settings:normal;text-align:start;letter-spacing:11.56139183px;word-spacing:0px;writing-mode:lr-tb;text-anchor:start;fill:#000000;fill-opacity:1;stroke:#4954e5;stroke-width:4.23333311;stroke-linecap:round;stroke-linejoin:round;stroke-miterlimit:4;stroke-dasharray:none;stroke-opacity:1;filter:url(#filter4728)"
           d="m 19.446961,118.39256 c -0.956631,-1.20838 -1.132853,-4.98455 -1.938437,-15.73407 H 12.85124 l -7.7285735,16.61518 h 3.2223369 c 0.5286646,-1.40978 1.0069803,-2.64333 1.6111684,-4.12862 h 4.5314112 c 0.352443,2.79437 0.679712,4.63211 2.744021,4.63211 1.082504,0 1.888088,-0.60419 2.215357,-1.3846 z m -5.488043,-12.9397 0.427967,7.8041 h -3.675478 c 0.906282,-2.16501 1.837739,-4.53141 3.247511,-7.8041 z" />
        <path
           inkscape:connector-curvature="0"
           id="path4749"
           style="font-style:italic;font-variant:normal;font-weight:bold;font-stretch:normal;font-size:25.17450714px;line-height:31.46813774px;font-family:Sansita;-inkscape-font-specification:'Sansita, Bold Italic';font-variant-ligatures:normal;font-variant-caps:normal;font-variant-numeric:normal;font-feature-settings:normal;text-align:start;letter-spacing:11.56139183px;word-spacing:0px;writing-mode:lr-tb;text-anchor:start;fill:#87aade;fill-opacity:1;stroke:#87aade;stroke-width:2.11666656;stroke-linecap:round;stroke-linejoin:round;stroke-miterlimit:4;stroke-dasharray:none"
           d="m 18.24728,117.39297 c -0.956631,-1.20838 -1.132853,-4.98455 -1.938437,-15.73407 h -4.657284 l -7.7285733,16.61518 h 3.2223369 c 0.5286646,-1.40977 1.0069803,-2.64332 1.6111684,-4.12862 h 4.531411 c 0.352443,2.79437 0.679712,4.63211 2.744022,4.63211 1.082503,0 1.888088,-0.60419 2.215356,-1.3846 z m -5.488042,-12.9397 0.427966,7.8041 H 9.5117262 c 0.9062818,-2.16501 1.8377388,-4.53141 3.2475118,-7.8041 z" />
        <path
           inkscape:connector-curvature="0"
           id="path4732"
           style="font-style:italic;font-variant:normal;font-weight:bold;font-stretch:normal;font-size:25.17450714px;line-height:31.46813774px;font-family:Sansita;-inkscape-font-specification:'Sansita, Bold Italic';font-variant-ligatures:normal;font-variant-caps:normal;font-variant-numeric:normal;font-feature-settings:normal;text-align:start;letter-spacing:11.56139183px;word-spacing:0px;writing-mode:lr-tb;text-anchor:start;fill:#ffffff;fill-opacity:1;stroke:none;stroke-width:0.6293627"
           d="m 18.24728,117.39297 c -0.956631,-1.20838 -1.132853,-4.98455 -1.938437,-15.73407 h -4.657284 l -7.7285733,16.61518 h 3.2223369 c 0.5286646,-1.40977 1.0069803,-2.64332 1.6111684,-4.12862 h 4.531411 c 0.352443,2.79437 0.679712,4.63211 2.744022,4.63211 1.082503,0 1.888088,-0.60419 2.215356,-1.3846 z m -5.488042,-12.9397 0.427966,7.8041 H 9.5117262 c 0.9062818,-2.16501 1.8377388,-4.53141 3.2475118,-7.8041 z" />
      </g>
    </g>
  </g>
</svg>
